<svg id="Layer_1" data-name="Layer 1" xmlns="http://www.w3.org/2000/svg" viewBox="0 0 1292.2 426.23"><defs><style>.cls-1{fill:#112254;}.cls-2{fill:#0b2257;}.cls-3{fill:#7cd1ff;}</style></defs><title>CGSQL-Logo</title><path class="cls-1" d="M425.34,206.63a60.19,60.19,0,0,1,4.92-24.33,56,56,0,0,1,14.26-19.61,67.61,67.61,0,0,1,22.81-13.08,91,91,0,0,1,30.5-4.77,116.34,116.34,0,0,1,27.38,3A86.44,86.44,0,0,1,548.37,157L537,175.78a39.76,39.76,0,0,0-7.38-3.75,67.31,67.31,0,0,0-8.91-2.78,88.22,88.22,0,0,0-9.76-1.75,80.24,80.24,0,0,0-10-.63,70.48,70.48,0,0,0-21.17,2.93,45.81,45.81,0,0,0-15.66,8.2,34.9,34.9,0,0,0-9.69,12.58,38.39,38.39,0,0,0-3.32,16,39.83,39.83,0,0,0,3.44,16.64,36.87,36.87,0,0,0,10,13.08,47.28,47.28,0,0,0,15.93,8.6A68.42,68.42,0,0,0,501.74,248a73.56,73.56,0,0,0,10.7-.78,85.24,85.24,0,0,0,10.27-2.15,79.81,79.81,0,0,0,9.57-3.28,76.17,76.17,0,0,0,8.59-4.18l11.41,18.75a84.23,84.23,0,0,1-23.12,10,104.22,104.22,0,0,1-27.89,3.63q-18.82,0-33-4.88a68.3,68.3,0,0,1-23.75-13.44,55.14,55.14,0,0,1-14.33-20.15A64.46,64.46,0,0,1,425.34,206.63Z"/><path class="cls-1" d="M561.93,206.24a60.08,60.08,0,0,1,4.84-24.1,55.12,55.12,0,0,1,14.14-19.49,67.46,67.46,0,0,1,22.85-13q13.54-4.77,31-4.77a120.15,120.15,0,0,1,12.69.67,106.08,106.08,0,0,1,12.58,2.07,98.61,98.61,0,0,1,12.11,3.55,76.56,76.56,0,0,1,11.21,5.12L672,175a46.25,46.25,0,0,0-7.26-3.39A65.91,65.91,0,0,0,656,169a85.59,85.59,0,0,0-9.61-1.6,89.58,89.58,0,0,0-10-.55,67,67,0,0,0-20.62,2.93,44.79,44.79,0,0,0-15.31,8.2A35,35,0,0,0,591,190.62a38.94,38.94,0,0,0-3.28,16.09,39.83,39.83,0,0,0,3.43,16.64,37.6,37.6,0,0,0,9.77,13A45.92,45.92,0,0,0,616.22,245,66.82,66.82,0,0,0,652.46,246a43.29,43.29,0,0,0,12.82-5.66,31.85,31.85,0,0,0,8.9-8.87,29.9,29.9,0,0,0,4.53-11.68H636.06V199.44H701v.08l.08-.08a63.12,63.12,0,0,1,1.21,18.24,54.21,54.21,0,0,1-4.06,16.72,52.8,52.8,0,0,1-9.1,14.41,55.85,55.85,0,0,1-13.83,11.29A70,70,0,0,1,657,267.44a90.2,90.2,0,0,1-22.42,2.62,87.36,87.36,0,0,1-30.51-5,68,68,0,0,1-22.85-13.67,58.91,58.91,0,0,1-14.33-20.31A62.64,62.64,0,0,1,561.93,206.24Z"/><path class="cls-1" d="M773.72,130.16h22.42L723.57,296.07H701.15Z"/><path class="cls-1" d="M811.86,232.1a150,150,0,0,0,13.48,6.75,106.85,106.85,0,0,0,14.17,5.08,111.12,111.12,0,0,0,15.43,3.16,128.45,128.45,0,0,0,17.23,1.1,103.14,103.14,0,0,0,18.74-1.45,45.91,45.91,0,0,0,12.62-4,17.91,17.91,0,0,0,7.11-6.06,14,14,0,0,0,2.22-7.65,12.17,12.17,0,0,0-5.54-10.51q-5.55-3.85-17.11-3.86a91.88,91.88,0,0,0-10.7.66q-5.62.66-11.37,1.45t-11.32,1.44a89.93,89.93,0,0,1-10.51.66,58.39,58.39,0,0,1-15.74-2.1,41.76,41.76,0,0,1-13.36-6.33A31.28,31.28,0,0,1,808,199.91a30.36,30.36,0,0,1-3.44-14.76,36.58,36.58,0,0,1,1.37-9.92,32.51,32.51,0,0,1,4.37-9.41,38.17,38.17,0,0,1,7.77-8.36,46.46,46.46,0,0,1,11.52-6.68,75.8,75.8,0,0,1,15.63-4.42,115.11,115.11,0,0,1,20.19-1.6,152.36,152.36,0,0,1,16.48.9q8.28.9,16.13,2.54a151.81,151.81,0,0,1,15.12,4,124.52,124.52,0,0,1,13.51,5.11l-10.86,20a116.42,116.42,0,0,0-11.09-4.18q-5.94-1.92-12.42-3.32t-13.39-2.23a121.1,121.1,0,0,0-14.1-.82,78.75,78.75,0,0,0-16.84,1.49,36.65,36.65,0,0,0-10.5,3.79,13.78,13.78,0,0,0-5.43,5.15,11.91,11.91,0,0,0-1.53,5.67,10.54,10.54,0,0,0,4.92,8.94q4.92,3.48,15,3.48a86,86,0,0,0,9.34-.59q5.26-.58,11.09-1.29t11.87-1.29q6.06-.59,11.76-.58a68.27,68.27,0,0,1,19.1,2.42,40,40,0,0,1,13.94,6.91A29.31,29.31,0,0,1,936,211.67a34.21,34.21,0,0,1,2.89,14.26A36.07,36.07,0,0,1,934,244.71a41.25,41.25,0,0,1-13.9,13.91,70.47,70.47,0,0,1-21.76,8.59A126.78,126.78,0,0,1,870,270.14a154.81,154.81,0,0,1-20.15-1.29A150.05,150.05,0,0,1,831,265.18a142.33,142.33,0,0,1-17.18-5.7,124.91,124.91,0,0,1-15.12-7.31Z"/><path class="cls-1" d="M959.31,207a62,62,0,0,1,5.08-25.31A57.41,57.41,0,0,1,978.65,162a64.64,64.64,0,0,1,22-12.77,91.6,91.6,0,0,1,56.9,0A64.55,64.55,0,0,1,1079.65,162a57.41,57.41,0,0,1,14.26,19.72A62,62,0,0,1,1099,207a63.4,63.4,0,0,1-4,22.85,59.08,59.08,0,0,1-11.36,18.63l22,19.92h-31.41l-7.57-6.87a72.12,72.12,0,0,1-17.34,6.4,88.15,88.15,0,0,1-20.08,2.19,83.11,83.11,0,0,1-28.47-4.65,65.13,65.13,0,0,1-22-13,58.3,58.3,0,0,1-14.26-19.95A63,63,0,0,1,959.31,207Zm24.77,0a41.1,41.1,0,0,0,3.4,17A37.44,37.44,0,0,0,996.93,237a42.57,42.57,0,0,0,14.29,8.24,53.77,53.77,0,0,0,17.93,2.89,52.78,52.78,0,0,0,19-3.28l-35-31.72h31.4l21.25,19.3A39.82,39.82,0,0,0,1072,221a42.06,42.06,0,0,0,2.22-13.94,40.11,40.11,0,0,0-3.44-17,36.72,36.72,0,0,0-9.45-12.69,41.4,41.4,0,0,0-14.25-7.93,60,60,0,0,0-35.86,0,41.77,41.77,0,0,0-14.29,7.93,36,36,0,0,0-9.45,12.69A40.56,40.56,0,0,0,984.08,207Z"/><path class="cls-1" d="M1133,146.33h24.76V246.7h71v21.72H1133Z"/><rect class="cls-2" x="64.35" y="64.35" width="297.52" height="297.52" rx="48.13"/><path class="cls-3" d="M295.8,301.18v6.57l10.41,7.39a22.38,22.38,0,0,0,3.11-4.37ZM120.85,329a23.82,23.82,0,0,1-4,4.21l136.24-.67a43.87,43.87,0,0,1-3.31-4.17Zm194.7-199.58-1.54,1.3-3,2.57-2.5,2.12a5.49,5.49,0,0,0-4.57-.57l-1.84-2.17-2.55-3-1.63-1.92a15.12,15.12,0,0,0-3.24,2.67l1.74,2,2.58,3,1.73,2a5.48,5.48,0,0,0-.64,2.58,5.66,5.66,0,0,0,.41,2.11l-2,1.71-3,2.57-2.25,1.92a14.81,14.81,0,0,0,2.75,3.16l2.23-1.9,3-2.56,2.26-1.92a5.35,5.35,0,0,0,2.16.45,5.17,5.17,0,0,0,1.76-.3l2.23,2.62,2.58,3,1.5,1.76a14.61,14.61,0,0,0,3.15-2.77l-1.4-1.64-2.56-3-2.33-2.74a5.4,5.4,0,0,0,.6-2.5,5.17,5.17,0,0,0-.16-1.31l2.73-2.32,3-2.57,1.49-1.27A15.06,15.06,0,0,0,315.55,129.38ZM284.31,312l-6.95.52-3,4.28a21.86,21.86,0,0,0,4.38,3.11Zm45.91-171,7.16-2.62a31.61,31.61,0,0,0-2.67-11.07l-7.35.49L324,123l3-6.44a32.06,32.06,0,0,0-9.73-6.06L312.42,116a24.23,24.23,0,0,0-5.92-1L304,108.25a31.6,31.6,0,0,0-10.82,2.44l.5,7.41c-.74.41-1.46.87-2.17,1.36a24.38,24.38,0,0,0-2.71,2.21l-6.74-3.13a31.57,31.57,0,0,0-5.89,9.29l5.59,4.67-1,5.79-7,2.73A31.43,31.43,0,0,0,276.11,152l7.91-.53.75,1.07,2.63,3.74-3.35,7.21a31.06,31.06,0,0,0,4.36,3.38,31.94,31.94,0,0,0,4.83,2.56l5-6,5.79,1,2.93,7.47a31.6,31.6,0,0,0,10.17-2.09l.56-.22-.53-8,0-.23h0a23.28,23.28,0,0,0,2.72-1.66,24.41,24.41,0,0,0,2.23-1.77l.65.3,6.65,3.09a31.61,31.61,0,0,0,5.75-9.28l-6-5.2A24.69,24.69,0,0,0,330.22,141ZM322.78,145a17.71,17.71,0,0,1-4,7.26,16.4,16.4,0,0,1-1.64,1.59,14.19,14.19,0,0,1-1.52,1.16,17.73,17.73,0,0,1-22-1.52,17.3,17.3,0,0,1-2.75-3.17c-.06-.07-.1-.14-.15-.21a17.65,17.65,0,0,1-2.94-9.78,17.73,17.73,0,0,1,4.91-12.26,17.75,17.75,0,0,1,25.12-.65,17.24,17.24,0,0,1,2.68,3.22,17.6,17.6,0,0,1,2.88,9.69A18,18,0,0,1,322.78,145Zm.49,150.08-2.22-7.67,6.78-7.36a42.63,42.63,0,0,0-5.53-8.21l0-4.11v-3.87l.33-87.92-2.06.84c-1.16.47-2.34.89-3.53,1.24l-.31,84.22h0l0,3.27v3.27l-7.23,4.37a33.34,33.34,0,0,0-7.15-3.92l-.44-10.73a42.73,42.73,0,0,0-12.47-1.85c-.75,0-1.5,0-2.25.05l-2.61,10.61a33.6,33.6,0,0,0-3.77.86,34.52,34.52,0,0,0-4.11,1.48l-2.43-2.23.47-3.36h0l.47-3.35h0l12-85.57a38.79,38.79,0,0,1-5.19-3.28l-11.84,84.26-.47,3.35-.47,3.36-.79-.72a42.61,42.61,0,0,0-11.58,9.41l.63,1.1-6,.84L113.9,292.87l-4.85.68-8.29,1.17s0,.07,0,.1a8.23,8.23,0,0,0-.86,0l.88-.12.6-2.7c.21-.93.42-1.86.64-2.78,20.2-87.22,56.71-137.82,74.6-160.46,5.78-7.12,9.5-11.17,10.07-11.77-1.38,2.48-45.54,82.63-56.85,152,42.88-17.28,75.28-68.21,75.28-68.21l-31.87-16c56.49-.68,79.71-51.21,88.88-100.7L244.37,85l20.74-20.79c.71-6,1.26-11.82,1.64-17.47A424.07,424.07,0,0,0,267.39,0a348.3,348.3,0,0,0-62.2,40,327.68,327.68,0,0,0-35.34,33L157,132.57a72.63,72.63,0,0,1-10.9-30.82A302.53,302.53,0,0,0,87.38,293.26c0,.06,0,.13,0,.19l.21,3.07.24,3.45a19.27,19.27,0,0,0,13.1,33.37,17.09,17.09,0,0,0,1.89-.1h0c.58-.06,1.17-.14,1.75-.25a19.25,19.25,0,0,0,12.63-8.6l-14.64,1.08h-.27l-.88.07h-.49a11.52,11.52,0,1,1,9.18-18.51l-9.62.72a6.3,6.3,0,0,0-5.81,6.74,6.15,6.15,0,0,0,.56,2.15h0a6.32,6.32,0,0,0,5.71,3.66l.47,0,9.62-.72,8.54-.63,2.93-.22,2.89-.22,123.64-9.2h0l5.92-.44,2.84-.21,4.79-.36,2.85-.21,2.9-.22,12.92-1,6.94-.52,1.78-.13a6.14,6.14,0,0,0,2.23-.6,2.48,2.48,0,0,0,.39-.21,6.17,6.17,0,0,0,2.62-2.84,5.73,5.73,0,0,0,.48-1.52,5,5,0,0,0,.08-.69V300c0-.15,0-.3,0-.45a6.14,6.14,0,0,0-.82-2.65l9.69-13.67a22,22,0,0,0-4.37-3.1l-9.71,13.69a5.9,5.9,0,0,0-1.52-.07l-3.37.25-12.91-9.16a22.33,22.33,0,0,0-3.1,4.37l7.63,5.42-9.91.73-2.89.22-2.87.21a28.14,28.14,0,0,1,3.44-9.84c.37-.64.77-1.27,1.19-1.88a25.63,25.63,0,0,1,1.92-2.48A28.07,28.07,0,0,1,286.92,272c.87-.08,1.75-.12,2.61-.12a27.88,27.88,0,0,1,14,3.75,22.44,22.44,0,0,1,1.91,1.19l.64.45c.63.46,1.24.94,1.83,1.46a28.14,28.14,0,0,1,6,35.34c-.37.64-.76,1.26-1.18,1.87l-.05.08c-.16.24-.33.47-.5.7-.44.59-.89,1.16-1.38,1.71A28,28,0,0,1,292.08,328c-.47.05-1,.08-1.43.1h-.16l-1,0a3.17,3.17,0,0,1-.44,0h-.24a27.67,27.67,0,0,1-13.31-3.73,22.44,22.44,0,0,1-1.91-1.19l-.64-.45c-.63-.46-1.24-.94-1.83-1.46a27.87,27.87,0,0,1-6.36-7.89l-6.24.46h0l-6.68,7.24a42.69,42.69,0,0,0,5,7.17,39.67,39.67,0,0,0,4.13,4.17c.15.15.31.29.46.42l.74-.42h0l7.36-4.23.71-.41.73.4,6.26,3.45v.71l.18,9.18a42.75,42.75,0,0,0,12.12,1.75c.91,0,1.82,0,2.74-.09l2.41-9.8a34.58,34.58,0,0,0,4.64-1q1.69-.49,3.3-1.14l7.42,6.82a42.73,42.73,0,0,0,11.79-9.38l-5.07-8.38a34,34,0,0,0,4-7.08l9.93-.42a43,43,0,0,0,1.86-15.45ZM101.55,316.5a2.39,2.39,0,0,1-2.38-2.38,2.34,2.34,0,0,1,.17-.88,2.38,2.38,0,0,1,4.2-.43,2.35,2.35,0,0,1,.39,1.31A2.38,2.38,0,0,1,101.55,316.5Zm185.72-17.37a2.38,2.38,0,0,1,4.51.27,2.43,2.43,0,0,1,.08.61,2.38,2.38,0,0,1-4.76,0A2.34,2.34,0,0,1,287.27,299.13ZM258.46,288l-10.54.2a43,43,0,0,0-1.52,8.78l-2.81.21-2.81.21L124.47,306l-2.9.21-2.92.22a19.19,19.19,0,0,0-7.84-8.93l4-.56h0l3.61-.51,135.35-19.07,3-.42,3-.42,2.54,4.43Z"/></svg>